<svg width="80" height="81" viewBox="0 0 80 81" fill="none" xmlns="http://www.w3.org/2000/svg">
<path d="M1.19101 24.0371C0.533626 24.0371 0 23.5035 0 22.8461V8.19026C0 3.67364 3.66589 0 8.16705 0H22.7765C23.4339 0 23.9675 0.533649 23.9675 1.19104C23.9675 1.84842 23.4339 2.38206 22.7765 2.38206H8.16705C4.97293 2.38206 2.38207 4.98841 2.38207 8.19026V22.8461C2.38207 23.5035 1.8484 24.0371 1.19101 24.0371Z" fill="#bbf843"/>
<path d="M22.7843 80.2321H8.17486C3.6737 80.2321 0.0078125 76.5584 0.0078125 72.0418V57.386C0.0078125 56.7286 0.541438 56.1949 1.19882 56.1949C1.85621 56.1949 2.38988 56.7286 2.38988 57.386V72.0418C2.38988 75.2437 4.98848 77.85 8.17486 77.85H22.7843C23.4417 77.85 23.9753 78.3837 23.9753 79.041C23.9753 79.6984 23.4417 80.2321 22.7843 80.2321Z" fill="#bbf843"/>
<path d="M78.8087 24.0371C78.1513 24.0371 77.6176 23.5035 77.6176 22.8461V8.19026C77.6176 4.98841 75.019 2.38206 71.8326 2.38206H57.2154C56.558 2.38206 56.0244 1.84842 56.0244 1.19104C56.0244 0.533649 56.558 0 57.2154 0H71.8326C76.3338 0 79.9997 3.67364 79.9997 8.19026V22.8461C79.9997 23.5035 79.466 24.0371 78.8087 24.0371Z" fill="#bbf843"/>
<path d="M71.8326 80.2321H57.2154C56.558 80.2321 56.0244 79.6984 56.0244 79.041C56.0244 78.3837 56.558 77.85 57.2154 77.85H71.8326C75.0267 77.85 77.6176 75.2437 77.6176 72.0418V57.386C77.6176 56.7286 78.1513 56.1949 78.8087 56.1949C79.466 56.1949 79.9997 56.7286 79.9997 57.386V72.0418C79.9997 76.5584 76.3338 80.2321 71.8326 80.2321Z" fill="#bbf843"/>
<path d="M36.4266 38.0896H11.3531C10.6957 38.0896 10.1621 37.556 10.1621 36.8986V11.8097C10.1621 11.1523 10.6957 10.6187 11.3531 10.6187H36.4266C37.084 10.6187 37.6176 11.1523 37.6176 11.8097V36.8986C37.6176 37.556 37.084 38.0896 36.4266 38.0896ZM12.5442 35.7076H35.2356V13.0007H12.5442V35.7076Z" fill="white"/>
<path d="M29.141 30.7967H18.6383C17.9809 30.7967 17.4473 30.263 17.4473 29.6056V19.0952C17.4473 18.4378 17.9809 17.9042 18.6383 17.9042H29.141C29.7984 17.9042 30.3321 18.4378 30.3321 19.0952V29.6056C30.3321 30.263 29.7984 30.7967 29.141 30.7967ZM19.8293 28.4146H27.95V20.2862H19.8293V28.4146Z" fill="white"/>
<path d="M36.4266 69.6133H11.3531C10.6957 69.6133 10.1621 69.0797 10.1621 68.4223V43.3334C10.1621 42.676 10.6957 42.1423 11.3531 42.1423H36.4266C37.084 42.1423 37.6176 42.676 37.6176 43.3334V68.4223C37.6176 69.0797 37.084 69.6133 36.4266 69.6133ZM12.5442 67.2313H35.2356V44.5244H12.5442V67.2313Z" fill="white"/>
<path d="M29.141 62.3202H18.6383C17.9809 62.3202 17.4473 61.7866 17.4473 61.1292V50.6188C17.4473 49.9614 17.9809 49.4277 18.6383 49.4277H29.141C29.7984 49.4277 30.3321 49.9614 30.3321 50.6188V61.1292C30.3321 61.7866 29.7984 62.3202 29.141 62.3202ZM19.8293 59.9382H27.95V51.8098H19.8293V59.9382Z" fill="white"/>
<path d="M68.6464 38.0896H43.5729C42.9155 38.0896 42.3818 37.556 42.3818 36.8986V11.8097C42.3818 11.1523 42.9155 10.6187 43.5729 10.6187H68.6464C69.3037 10.6187 69.8374 11.1523 69.8374 11.8097V36.8986C69.8374 37.556 69.3037 38.0896 68.6464 38.0896ZM44.7639 35.7076H67.4553V13.0007H44.7639V35.7076Z" fill="white"/>
<path d="M61.3607 30.7967H50.858C50.2006 30.7967 49.667 30.263 49.667 29.6056V19.0952C49.667 18.4378 50.2006 17.9042 50.858 17.9042H61.3607C62.0181 17.9042 62.5517 18.4378 62.5517 19.0952V29.6056C62.5517 30.263 62.0181 30.7967 61.3607 30.7967ZM52.049 28.4146H60.1697V20.2862H52.049V28.4146Z" fill="white"/>
<path d="M45.5297 42.6295H42.877V50.2011H45.5297V42.6295Z" fill="#bbf843"/>
<path d="M69.35 42.6295H66.6973V46.4114H69.35V42.6295Z" fill="#bbf843"/>
<path d="M48.182 50.201H45.5293V53.983H48.182V50.201Z" fill="#bbf843"/>
<path d="M61.3842 57.7726H58.7314V61.5545H61.3842V57.7726Z" fill="#bbf843"/>
<path d="M56.0791 65.3364V69.1261H58.7318H61.3923V65.3364H58.7318H56.0791Z" fill="#bbf843"/>
<path d="M64.0443 61.5546H61.3916V65.3365H64.0443V61.5546Z" fill="#bbf843"/>
<path d="M66.6977 65.3364H64.0449V69.1183H66.6977V65.3364Z" fill="#bbf843"/>
<path d="M45.5297 57.7726H42.877V61.5545H45.5297V57.7726Z" fill="#bbf843"/>
<path d="M58.7312 50.2011H56.0784V46.4192H53.4411V42.6373H50.7884V46.4192H48.182V50.2011H50.8039V53.983H48.182V57.7649H50.8039V61.5469H48.182V65.3287H45.5293V69.1107H50.8348V61.5391H53.4257V65.321H56.0784V61.5391H53.4566V57.7572H58.7312V53.9753H61.3839V50.1934H58.7312V50.2011ZM50.8348 46.4192H53.4257V50.2011H50.8348V46.4192ZM50.8348 57.7727V53.9908H53.4257V57.7727H50.8348Z" fill="#bbf843"/>
<path d="M66.6971 50.2011V46.4192H64.0443H61.3916V50.2011H64.0443H66.6971Z" fill="#bbf843"/>
<path d="M64.0443 57.7727H66.6971V53.983H64.0443H61.3916V57.7727H64.0443Z" fill="#bbf843"/>
<path d="M69.35 57.7726H66.6973V61.5545H69.35V57.7726Z" fill="#bbf843"/>
</svg>
