<svg width="80" height="81" viewBox="0 0 80 81" fill="none" xmlns="http://www.w3.org/2000/svg">
<path d="M1.19117 24.0471C0.533725 24.0471 0 23.5135 0 22.856V8.19875C0 3.68168 3.66625 0.00769043 8.16784 0.00769043H60.4003C61.0577 0.00769043 61.5915 0.541391 61.5915 1.19884C61.5915 1.85629 61.0577 2.38998 60.4003 2.38998H8.16784C4.97341 2.38998 2.3823 4.99658 2.3823 8.19875V22.856C2.3823 23.5135 1.84862 24.0471 1.19117 24.0471Z" fill="#bbf843"/>
<path d="M60.4003 80.2475H8.16784C3.66625 80.2475 0 76.5735 0 72.0564V20.0947C0 19.4373 0.533725 18.9036 1.19117 18.9036C1.84862 18.9036 2.3823 19.4373 2.3823 20.0947V72.0564C2.3823 75.2586 4.98115 77.8652 8.16784 77.8652H60.4003C61.0577 77.8652 61.5915 78.3989 61.5915 79.0563C61.5915 79.7138 61.0577 80.2475 60.4003 80.2475Z" fill="#bbf843"/>
<path d="M78.8089 63.5096C78.1514 63.5096 77.6178 62.9759 77.6178 62.3185V8.19104C77.6178 4.98888 75.0189 2.38229 71.8322 2.38229H57.2136C56.5562 2.38229 56.0225 1.84859 56.0225 1.19114C56.0225 0.533689 56.5562 0 57.2136 0H71.8322C76.3338 0 80 3.67398 80 8.19104V62.3185C80 62.9759 79.4663 63.5096 78.8089 63.5096Z" fill="#bbf843"/>
<path d="M71.8322 80.2476H57.2136C56.5562 80.2476 56.0225 79.7139 56.0225 79.0564C56.0225 78.399 56.5562 77.8653 57.2136 77.8653H71.8322C75.0267 77.8653 77.6178 75.2587 77.6178 72.0565V57.3993C77.6178 56.7418 78.1514 56.2081 78.8089 56.2081C79.4663 56.2081 80 56.7418 80 57.3993V72.0565C80 76.5736 76.3338 80.2476 71.8322 80.2476Z" fill="#bbf843"/>
<path d="M66.5881 13.2959H13.4043C10.9369 13.2959 8.93359 15.2992 8.93359 17.7666V50.0976C8.93359 52.565 10.9369 54.576 13.4043 54.576H26.7776C27.2262 61.4754 32.9808 66.9592 39.9962 66.9592C47.0116 66.9592 52.7661 61.4831 53.2148 54.576H66.5881C69.0555 54.576 71.0665 52.565 71.0665 50.0976V17.7666C71.0665 15.2992 69.0555 13.2959 66.5881 13.2959ZM13.4043 15.0285H66.5881C68.0963 15.0285 69.3262 16.2583 69.3262 17.7666V19.5455H10.6662V17.7666C10.6662 16.2583 11.896 15.0285 13.4043 15.0285ZM69.3262 21.2781V26.909H10.6662V21.2781H69.3262ZM39.9962 65.2267C33.646 65.2267 28.4792 60.0599 28.4792 53.7097C28.4792 47.3595 33.646 42.1927 39.9962 42.1927C46.3464 42.1927 51.5132 47.3595 51.5132 53.7097C51.5132 60.0599 46.3464 65.2267 39.9962 65.2267ZM66.5881 52.8434H53.2148C52.7661 45.9363 47.0116 40.4602 39.9962 40.4602C32.9808 40.4602 27.2262 45.9441 26.7776 52.8434H13.4043C11.896 52.8434 10.6662 51.6136 10.6662 50.1053V28.657H69.3262V50.1053C69.3262 51.6136 68.0963 52.8434 66.5881 52.8434Z" fill="white"/>
<path d="M13.1182 35.6337H20.9612C21.4408 35.6337 21.8275 35.247 21.8275 34.7674C21.8275 34.2879 21.4408 33.9011 20.9612 33.9011H13.1182C12.6387 33.9011 12.252 34.2879 12.252 34.7674C12.252 35.247 12.6387 35.6337 13.1182 35.6337Z" fill="white"/>
<path d="M26.1429 33.8934H24.418C23.9385 33.8934 23.5518 34.2802 23.5518 34.7597C23.5518 35.2393 23.9385 35.626 24.418 35.626H26.1429C26.6224 35.626 27.0091 35.2393 27.0091 34.7597C27.0091 34.2802 26.6224 33.8934 26.1429 33.8934Z" fill="white"/>
<path d="M24.5114 41.922H14.758C13.3735 41.922 12.252 43.0435 12.252 44.428C12.252 45.8126 13.3735 46.9341 14.758 46.9341H24.5114C25.8959 46.9341 27.0175 45.8126 27.0175 44.428C27.0175 43.0435 25.8959 41.922 24.5114 41.922ZM24.5114 45.1938H14.758C14.3326 45.1938 13.9923 44.8535 13.9923 44.428C13.9923 44.0026 14.3326 43.6623 14.758 43.6623H24.5114C24.9368 43.6623 25.2772 44.0026 25.2772 44.428C25.2772 44.8535 24.9368 45.1938 24.5114 45.1938Z" fill="white"/>
<path d="M47.1663 50.5926L47.1276 50.376C47.0889 50.1595 47.058 49.9506 46.9961 49.7418C46.5088 48.0169 44.9774 46.7407 43.1906 46.5628L43.152 46.849L43.1288 46.5474H42.3166L42.2857 46.5628C42.2857 46.5628 42.2857 46.5628 42.2702 46.5628C41.8371 46.6092 41.4039 46.7175 40.994 46.8954C40.4912 47.112 40.0426 47.4136 39.6559 47.8004C39.0912 48.3573 38.5344 48.9219 37.9697 49.4865C37.7918 49.6644 37.7068 49.9042 37.7377 50.144C37.7686 50.376 37.9001 50.5771 38.1089 50.6932C38.4183 50.8788 38.7818 50.8169 39.0603 50.5462L40.6614 48.9451C41.3962 48.2103 42.2625 47.9396 43.2912 48.1175C44.5829 48.3341 45.6193 49.5407 45.6425 50.8556C45.658 51.7219 45.3718 52.4335 44.7685 53.0445L43.1442 54.6688C42.8271 54.9859 42.8194 55.4577 43.121 55.7594C43.268 55.9064 43.4536 55.9837 43.647 55.9837H43.6624C43.8636 55.9837 44.0569 55.8909 44.2116 55.7439L44.4978 55.4577C44.9774 54.9782 45.4569 54.5064 45.9287 54.0191C46.4315 53.5086 46.7873 52.8821 46.9884 52.1628C47.0348 51.9849 47.0657 51.807 47.0967 51.6291C47.1121 51.5362 47.1276 51.4434 47.1508 51.2965V50.6003L47.1663 50.5926Z" fill="#bbf843"/>
<path d="M41.6824 56.6412C41.404 56.5716 41.1487 56.6567 40.9244 56.881C40.3907 57.4147 39.8648 57.9484 39.3311 58.4743C38.5886 59.2091 37.73 59.4798 36.7013 59.3019C35.4096 59.0854 34.3809 57.8788 34.3499 56.5639C34.3345 55.6976 34.6206 54.9782 35.2317 54.3672C35.7731 53.8335 36.3145 53.2921 36.8482 52.7507C37.1653 52.4335 37.1731 51.9617 36.8637 51.6601C36.7168 51.5131 36.5234 51.4203 36.3145 51.4358C36.1134 51.4358 35.9201 51.5286 35.7731 51.6755L35.3709 52.0777C34.93 52.5109 34.4969 52.9518 34.0638 53.3926C33.2671 54.2125 32.8494 55.2412 32.8262 56.4478C32.8416 57.6467 33.2748 58.6832 34.0947 59.5417C34.9455 60.4157 36.0979 60.8644 37.2581 60.8644C38.2869 60.8644 39.3156 60.5086 40.1277 59.797C40.5222 59.4489 40.8857 59.0776 41.2415 58.7141C41.4272 58.5207 41.6128 58.3351 41.8061 58.1495L41.8603 58.0953C41.9299 58.0257 42.0073 57.9561 42.0769 57.8788C42.2548 57.6699 42.3089 57.3992 42.2316 57.1517C42.1542 56.9042 41.9454 56.7108 41.6902 56.649L41.6824 56.6412Z" fill="#bbf843"/>
<path d="M36.8171 56.5405C36.9332 56.788 37.1729 56.9582 37.4204 56.9659H37.4436C37.7762 56.9659 37.9618 56.8267 38.0933 56.6952L42.9972 51.7837C42.9972 51.7837 43.0668 51.7141 43.0977 51.6754C43.2756 51.4511 43.3142 51.1804 43.206 50.9251C43.0977 50.6622 42.8889 50.492 42.6027 50.4533C42.3552 50.4224 42.1231 50.5075 41.9143 50.7163L36.9873 55.6433C36.9873 55.6433 36.9332 55.6974 36.91 55.7284C36.7166 55.9759 36.6856 56.2621 36.8171 56.5328V56.5405Z" fill="#bbf843"/>
</svg>
