<svg width="80" height="81" viewBox="0 0 80 81" fill="none" xmlns="http://www.w3.org/2000/svg">
<path d="M1.19106 24.0448C0.533673 24.0448 0 23.5112 0 22.8538V8.19795C0 3.68132 3.66594 0.00769043 8.16709 0.00769043H60.3944C61.0518 0.00769043 61.5854 0.541339 61.5854 1.19872C61.5854 1.85611 61.0518 2.38975 60.3944 2.38975H8.16709C4.97297 2.38975 2.38212 4.9961 2.38212 8.19795V22.8538C2.38212 23.5112 1.84844 24.0448 1.19106 24.0448Z" fill="#bbf843"/>
<path d="M60.3944 80.2397H8.16709C3.66594 80.2397 0 76.566 0 72.0494V20.0928C0 19.4354 0.533673 18.9017 1.19106 18.9017C1.84844 18.9017 2.38212 19.4354 2.38212 20.0928V72.0494C2.38212 75.2513 4.98071 77.8576 8.16709 77.8576H60.3944C61.0518 77.8576 61.5854 78.3913 61.5854 79.0486C61.5854 79.706 61.0518 80.2397 60.3944 80.2397Z" fill="#bbf843"/>
<path d="M78.8086 63.5034C78.1512 63.5034 77.6175 62.9698 77.6175 62.3124V8.19025C77.6175 4.98839 75.0189 2.38206 71.8326 2.38206H57.2154C56.558 2.38206 56.0244 1.84841 56.0244 1.19102C56.0244 0.533637 56.558 0 57.2154 0H71.8326C76.3337 0 79.9997 3.67362 79.9997 8.19025V62.3124C79.9997 62.9698 79.466 63.5034 78.8086 63.5034Z" fill="#bbf843"/>
<path d="M71.8247 80.2398H57.2076C56.5502 80.2398 56.0166 79.7061 56.0166 79.0487C56.0166 78.3913 56.5502 77.8577 57.2076 77.8577H71.8247C75.0189 77.8577 77.6097 75.2513 77.6097 72.0495V57.3937C77.6097 56.7363 78.1434 56.2026 78.8008 56.2026C79.4582 56.2026 79.9918 56.7363 79.9918 57.3937V72.0495C79.9918 76.5661 76.3259 80.2398 71.8247 80.2398Z" fill="#bbf843"/>
<path d="M63.1863 60.4175L59.2884 16.0633C59.0641 13.4957 56.945 11.5544 54.3696 11.5544H25.6225C23.0471 11.5544 20.928 13.4879 20.7037 16.0633L16.8135 60.3943C16.7594 60.7269 16.7284 61.0749 16.7207 61.4152V61.5544C16.7207 65.491 19.9225 68.6851 23.8591 68.6851H56.133C58.0433 68.6851 59.8375 67.9349 61.1832 66.5969C62.5366 65.259 63.2714 63.4647 63.2714 61.5544V61.4152C63.2714 61.0826 63.2327 60.7424 63.1863 60.4175ZM23.1785 16.2799C23.2945 15.0038 24.3464 14.0448 25.6225 14.0448H54.3696C55.6534 14.0448 56.6975 15.0038 56.8058 16.2799L60.2629 55.7385C59.1028 54.9032 57.672 54.416 56.133 54.416H23.8591C22.3587 54.416 20.9202 54.88 19.7292 55.7385L23.1863 16.2876L23.1785 16.2799ZM60.7579 62.0107C60.7424 62.1577 60.7269 62.2969 60.7037 62.4361C60.6031 62.9543 60.4253 63.4415 60.1546 63.8901C60.0386 64.0989 59.8916 64.3 59.7369 64.4933C59.6364 64.6093 59.5358 64.7253 59.4275 64.8336C58.5459 65.7075 57.3781 66.1948 56.133 66.1948H23.8591C22.2659 66.1948 20.8506 65.3904 20.0231 64.1685C19.938 64.0525 19.8607 63.921 19.7834 63.7895C19.7293 63.6967 19.6751 63.5962 19.6364 63.4956C19.4895 63.194 19.3812 62.8692 19.3116 62.5212C19.2806 62.3742 19.2574 62.235 19.2342 62.0881C19.2188 61.9256 19.2034 61.7555 19.2034 61.5853L19.2807 60.6882C19.2807 60.6882 19.2807 60.6495 19.2807 60.6418C19.4586 59.7447 19.8917 58.9249 20.5491 58.2675C21.4307 57.3936 22.5986 56.9063 23.8437 56.9063H56.1175C58.399 56.9063 60.3092 58.5614 60.6959 60.7423L60.7733 61.5853C60.7733 61.7323 60.7733 61.8715 60.7501 62.0184L60.7579 62.0107Z" fill="white"/>
<path d="M30.4562 60.3325H24.7022C24.0139 60.3325 23.457 60.8894 23.457 61.5777C23.457 62.266 24.0139 62.8229 24.7022 62.8229H30.4562C31.1445 62.8229 31.7014 62.266 31.7014 61.5777C31.7014 60.8894 31.1445 60.3325 30.4562 60.3325Z" fill="white"/>
<path d="M42.8772 60.3093H37.1231C36.4348 60.3093 35.8779 60.8662 35.8779 61.5545C35.8779 62.2428 36.4348 62.7997 37.1231 62.7997H42.8772C43.5655 62.7997 44.1223 62.2428 44.1223 61.5545C44.1223 60.8662 43.5655 60.3093 42.8772 60.3093Z" fill="white"/>
<path d="M54.9416 59.7524C53.9439 59.7524 53.1396 60.5568 53.1396 61.5545C53.1396 62.5521 53.9517 63.3565 54.9416 63.3565C55.9316 63.3565 56.7436 62.5444 56.7436 61.5545C56.7436 60.5645 55.9316 59.7524 54.9416 59.7524Z" fill="white"/>
<path d="M33.7356 34.5785L39.2344 35.3055C39.3659 35.3209 39.4664 35.4447 39.451 35.5761L38.9251 41.2915C38.9019 41.539 39.2035 41.6628 39.3659 41.4772L46.4192 33.3101C46.5507 33.1554 46.458 32.9234 46.2646 32.8925L40.7658 32.1655C40.6343 32.15 40.5337 32.0263 40.5492 31.8948L41.0751 26.1794C41.0983 25.9319 40.7967 25.8082 40.6343 25.9938L33.5809 34.1608C33.4494 34.3155 33.5422 34.5475 33.7356 34.5785Z" fill="#bbf843"/>
</svg>
