<svg width="152" height="95" viewBox="0 0 152 95" fill="none" xmlns="http://www.w3.org/2000/svg">
<g clip-path="url(#clip0_341_563)">
<path d="M24.8166 21.5405H35.121L36.6387 12.6324H26.3344L28.5719 0L14.3542 12.6324H8.92302L7.40527 21.5405H12.8364L9.16295 42.3531C8.52313 46.0774 8.94847 48.8047 10.4408 50.5314C11.9312 52.2599 14.7795 53.1224 18.9874 53.1224H29.6098L31.2075 44.2143H23.1408C21.6485 44.2143 21.0105 43.4587 21.2231 41.9476L24.8166 21.5405Z" fill="#bbf843"/>
<path d="M72.8606 15.3063C70.1704 12.7135 66.0316 11.418 60.4405 11.418C53.677 11.418 48.4185 13.1871 44.665 16.7234C40.9115 20.2597 38.4213 25.6444 37.1962 32.8774C35.9711 40.1122 36.7164 45.4987 39.4338 49.0332C42.1494 52.5695 46.808 54.3368 53.4116 54.3368C59.3208 54.3368 63.9667 53.0966 67.3494 50.6125C70.7303 48.1302 73.0605 44.675 74.3383 40.2467H62.3563C61.6638 43.5951 59.5607 45.2684 56.0472 45.2684H53.4116C51.334 45.2684 49.9235 44.8353 49.1783 43.9729C48.4312 43.1086 48.2458 41.6509 48.6184 39.5999L49.1783 36.4413H74.9781C75.4562 35.2546 75.896 33.7416 76.2941 31.9062C76.694 30.0708 76.8939 28.2354 76.8939 26.3999C76.8939 21.5957 75.5489 17.8973 72.8606 15.3063ZM65.0719 26.1567L64.6738 28.4233H50.616L51.0141 26.1567C51.3867 24.1056 52.0792 22.648 53.0917 21.7837C54.1023 20.9213 55.6473 20.4882 57.7249 20.4882H60.2805C62.5163 20.4882 63.954 20.9747 64.5938 21.9459C65.2318 22.917 65.3918 24.3213 65.0719 26.1567Z" fill="#bbf843"/>
<path d="M131.671 41.1773C132.549 40.3443 133.416 39.4653 134.269 38.5476L150.558 20.7296L152 12.6323H123.241L115.485 28.1837C115.485 28.1837 129.374 28.2408 129.539 28.2408C129.539 28.3772 112.978 45.7622 105.951 53.1242H145.211L146.727 44.2161H129.235L129.394 43.4071C130.035 42.7566 130.793 42.0176 131.671 41.1773ZM98.7351 38.8056C98.5097 38.7577 116.674 18.9292 122.447 12.6323H107.078V12.66L84.8791 12.7134L83.3632 21.6197H100.375L100.218 22.4305C99.524 23.081 98.766 23.8071 97.939 24.6179C97.1138 25.4287 96.2504 26.293 95.347 27.2089L78.8899 44.944L77.4521 53.1242H104.563L112.08 38.8056C112.08 38.8056 99.0023 38.8627 98.7351 38.8056Z" fill="#bbf843"/>
<path d="M27.5993 62.9517C26.1707 60.6795 23.895 59.5425 20.774 59.5425C18.9128 59.5425 17.4368 59.8447 16.3408 60.451C15.2447 61.0573 14.2977 61.8147 13.4998 62.725H13.0526L12.8527 60.1488H6.02736L0 94.9998L9.56453 82.7765H10.0135C10.477 83.7532 11.3004 84.5364 12.4801 85.1242C13.6579 85.7139 15.0611 86.0088 16.6898 86.0088C19.8107 86.0088 22.4099 84.9399 24.4857 82.8023C26.5615 80.6646 27.932 77.4895 28.5954 73.2806C29.3588 68.668 29.0262 65.2238 27.5993 62.9517ZM21.2721 69.7442L20.2269 75.6043C19.9597 77.0177 19.4944 78.046 18.831 78.6855C18.1675 79.3249 17.2205 79.6456 15.9918 79.6456H13.6506C12.4219 79.6456 11.5658 79.3673 11.0841 78.8108C10.6024 78.2561 10.477 77.355 10.7097 76.1093L11.9057 69.2393C12.1383 67.9954 12.5873 67.0943 13.2507 66.5378C13.916 65.9831 14.8612 65.7048 16.0917 65.7048H18.4329C19.6616 65.7048 20.5087 66.0255 20.974 66.6649C21.4375 67.3044 21.5375 68.3308 21.2721 69.7442Z" fill="#bbf843"/>
<path d="M57.2164 66.8162C56.9001 65.1319 56.2784 63.7443 55.3496 62.6497C54.419 61.555 53.1902 60.7387 51.6616 60.1987C50.1329 59.6607 48.3571 59.3916 46.3322 59.3916C44.0729 59.3916 42.1134 59.6699 40.4521 60.2245C38.7907 60.7792 37.3802 61.614 36.2169 62.7252C35.0554 63.8364 34.1084 65.2241 33.3777 66.8918C32.647 68.5577 32.0836 70.5203 31.6837 72.7759C31.2856 75.0665 31.2529 77.053 31.5855 78.7355C31.9163 80.4198 32.5562 81.8093 33.5032 82.902C34.4483 83.9967 35.6953 84.8149 37.2385 85.353C38.7835 85.8911 40.5684 86.1601 42.5951 86.1601C44.8526 86.1601 46.8048 85.8837 48.448 85.3272C50.0929 84.7725 51.4871 83.9377 52.634 82.8265C53.7792 81.7153 54.708 80.3276 55.4241 78.6599C56.1385 76.994 56.6929 75.0314 57.0928 72.7759C57.4908 70.4871 57.5326 68.5006 57.2164 66.8162ZM49.7694 69.14L48.4734 76.4117C48.2735 77.6593 47.8427 78.5586 47.1774 79.1151C46.514 79.6698 45.5506 79.948 44.2892 79.948H41.9971C40.7338 79.948 39.8704 79.6698 39.4069 79.1151C38.9416 78.5586 38.8089 77.6593 39.007 76.4117L40.303 69.14C40.503 67.8943 40.9338 66.9931 41.599 66.4366C42.2625 65.8819 43.2258 65.6037 44.4873 65.6037H46.7794C48.0408 65.6037 48.9042 65.8819 49.3695 66.4366C49.8348 66.9931 49.9675 67.8943 49.7694 69.14Z" fill="#bbf843"/>
<path d="M91.1197 60.1489L87.5316 70.6547C87.0663 72.0682 86.6192 73.441 86.1866 74.7715C85.7558 76.102 85.3577 77.4233 84.9924 78.7354H84.4925C84.5925 77.3551 84.6597 76.0173 84.6924 74.7199C84.7252 73.4245 84.7415 72.0682 84.7415 70.6547L84.6924 60.1489H76.0731L71.9397 70.6547C71.3726 72.0682 70.8837 73.4245 70.4693 74.7199C70.053 76.0173 69.6131 77.3551 69.1496 78.7354H68.6516C68.7825 77.3551 68.8824 76.0173 68.9497 74.7199C69.0151 73.4245 69.0824 72.0682 69.1496 70.6547L69.5477 60.1489H61.5264L63.1205 85.4027H72.2869L76.024 75.7058C76.5548 74.3588 77.0455 73.0117 77.4945 71.6646C77.9417 70.3175 78.3652 68.987 78.7632 67.6749H79.2631C79.1631 68.987 79.0704 70.3175 78.9886 71.6646C78.905 73.0117 78.8796 74.3588 78.9141 75.7058L79.1122 85.4027H88.2296L99.0411 60.1489H91.1197Z" fill="#bbf843"/>
<path d="M121.334 61.8149C119.656 60.1987 117.075 59.3916 113.587 59.3916C109.368 59.3916 106.089 60.4936 103.748 62.6994C101.405 64.9053 99.8527 68.2647 99.0893 72.7759C98.3241 77.2889 98.7894 80.6465 100.485 82.8523C102.178 85.0581 105.084 86.1601 109.203 86.1601C112.889 86.1601 115.786 85.3861 117.897 83.8382C120.005 82.2884 121.457 80.1341 122.255 77.3718H114.783C114.35 79.4597 113.038 80.5046 110.846 80.5046H109.203C107.907 80.5046 107.027 80.2337 106.562 79.6956C106.096 79.1575 105.98 78.249 106.213 76.9682L106.562 74.9983H122.653C122.953 74.2575 123.228 73.3158 123.475 72.1696C123.726 71.0252 123.849 69.8808 123.849 68.7346C123.849 65.7382 123.01 63.431 121.334 61.8149ZM116.477 68.5835L116.228 69.9969H107.46L107.709 68.5835C107.94 67.3046 108.372 66.3961 109.003 65.8561C109.634 65.318 110.599 65.0472 111.893 65.0472H113.487C114.883 65.0472 115.779 65.3512 116.177 65.9575C116.577 66.5638 116.675 67.4391 116.477 68.5835Z" fill="#bbf843"/>
<path d="M146.518 59.8447C144.392 59.8447 142.632 60.1912 141.236 60.8804C139.842 61.5714 138.662 62.5573 137.699 63.8362H137.201V60.1488H130.376L125.942 85.4025H133.415L135.658 72.7259C135.989 70.8407 136.628 69.4918 137.575 68.6846C138.522 67.8756 139.958 67.4721 141.885 67.4721H145.771L147.114 59.8447H146.518Z" fill="#bbf843"/>
</g>
<defs>
<clipPath id="clip0_341_563">
<rect width="152" height="95" fill="white"/>
</clipPath>
</defs>
</svg>
