<svg width="715" height="676" viewBox="0 0 715 676" fill="none" xmlns="http://www.w3.org/2000/svg">
<g opacity="0.8" filter="url(#filter0_f_289_261)">
<path d="M437.5 194.125C481.814 99.7192 533.505 -59.9679 508.338 -71.7812C483.171 -83.5946 520.957 -13.8512 222.162 247.218C132.363 344.836 239.087 463.187 264.254 475C289.421 486.813 393.186 288.532 437.5 194.125Z" fill="#C8FF00" fill-opacity="0.6"/>
<path d="M264.467 474.547C265.874 475.208 267.604 475.16 269.681 474.363C271.761 473.564 274.139 472.033 276.785 469.812C282.074 465.373 288.338 458.263 295.311 449.07C309.251 430.693 325.954 404.087 343.264 374.145C377.882 314.265 414.896 241.106 437.048 193.913C459.194 146.734 483.185 83.2356 498.494 30.0618C506.149 3.47214 511.626 -20.5157 513.621 -38.5808C514.619 -47.6167 514.742 -55.1405 513.843 -60.7569C512.94 -66.4024 511.034 -69.9636 508.126 -71.3289C505.034 -72.7803 503.084 -72.8971 501.345 -71.7554C500.443 -71.1628 499.557 -70.2067 498.599 -68.8167C497.642 -67.4286 496.63 -65.6377 495.466 -63.4032C490.812 -54.4675 483.821 -38.6643 468.281 -14.3434C437.201 34.2998 371.916 117.033 222.508 247.579C177.805 296.192 182.007 349.947 200.555 393.088C209.833 414.667 222.697 433.578 234.812 447.829C240.87 454.954 246.736 460.91 251.868 465.45C257.008 469.997 261.386 473.101 264.467 474.547Z" stroke="black"/>
</g>
<defs>
<filter id="filter0_f_289_261" x="-13.167" y="-273.026" width="728.116" height="948.531" filterUnits="userSpaceOnUse" color-interpolation-filters="sRGB">
<feFlood flood-opacity="0" result="BackgroundImageFix"/>
<feBlend mode="normal" in="SourceGraphic" in2="BackgroundImageFix" result="shape"/>
<feGaussianBlur stdDeviation="100" result="effect1_foregroundBlur_289_261"/>
</filter>
</defs>
</svg>
