<svg width="72" height="45" viewBox="0 0 72 45" fill="none" xmlns="http://www.w3.org/2000/svg">
<g clip-path="url(#clip0_62_449)">
<path d="M11.7553 10.2034H16.6363L17.3552 5.98376H12.4742L13.5341 0L6.7994 5.98376H4.22674L3.50781 10.2034H6.08047L4.3404 20.062C4.03733 21.8261 4.2388 23.118 4.94568 23.9359C5.65169 24.7547 7.00088 25.1632 8.99408 25.1632H14.0257L14.7826 20.9436H10.9615C10.2546 20.9436 9.95237 20.5857 10.0531 19.8699L11.7553 10.2034Z" fill="#bbf843"/>
<path d="M34.5128 7.25035C33.2386 6.02218 31.2781 5.40852 28.6296 5.40852C25.4259 5.40852 22.935 6.24651 21.1571 7.92162C19.3791 9.59672 18.1995 12.1474 17.6192 15.5735C17.0389 19.0005 17.3919 21.552 18.6791 23.2263C19.9654 24.9014 22.1722 25.7385 25.3002 25.7385C28.0993 25.7385 30.3 25.151 31.9023 23.9743C33.5038 22.7985 34.6076 21.1618 35.2128 19.0642H29.5371C29.2091 20.6503 28.2129 21.4429 26.5486 21.4429H25.3002C24.3161 21.4429 23.6479 21.2378 23.2949 20.8293C22.941 20.4199 22.8532 19.7294 23.0297 18.7579L23.2949 17.2617H35.5159C35.7423 16.6996 35.9507 15.9829 36.1393 15.1135C36.3287 14.2441 36.4234 13.3747 36.4234 12.5052C36.4234 10.2296 35.7863 8.47766 34.5128 7.25035ZM30.8235 12.39L30.6349 13.4637H23.976L24.1645 12.39C24.341 11.4185 24.6691 10.728 25.1486 10.3186C25.6274 9.91009 26.3592 9.70496 27.3433 9.70496H28.5539C29.6129 9.70496 30.294 9.93541 30.597 10.3954C30.8992 10.8555 30.975 11.5206 30.8235 12.39Z" fill="#bbf843"/>
<path d="M62.3707 19.5051C62.7865 19.1105 63.1972 18.6941 63.601 18.2594L71.3173 9.81931L72 5.98376H58.3774L54.7035 13.3502C54.7035 13.3502 61.2824 13.3773 61.3607 13.3773C61.3607 13.4419 53.5162 21.6769 50.1876 25.1641H68.7842L69.5023 20.9445H61.2169L61.2918 20.5613C61.5958 20.2531 61.9548 19.9031 62.3707 19.5051ZM46.7694 18.3816C46.6626 18.3589 55.2666 8.96648 58.0011 5.98376H50.7214V5.99686L40.206 6.02217L39.488 10.2409H47.546L47.472 10.625C47.1431 10.9331 46.784 11.2771 46.3923 11.6611C46.0014 12.0452 45.5924 12.4546 45.1645 12.8884L37.369 21.2893L36.688 25.1641H49.5298L53.0908 18.3816C53.0908 18.3816 46.896 18.4087 46.7694 18.3816Z" fill="#bbf843"/>
<path d="M13.0734 29.8193C12.3966 28.743 11.3187 28.2044 9.84033 28.2044C8.95867 28.2044 8.25954 28.3476 7.74036 28.6348C7.22118 28.922 6.7726 29.2807 6.39462 29.7119H6.18282L6.08811 28.4916H2.85507L0 45L4.53057 39.21H4.74323C4.96279 39.6727 5.35282 40.0436 5.9116 40.3221C6.46953 40.6014 7.13422 40.7411 7.90567 40.7411C9.384 40.7411 10.6152 40.2348 11.5985 39.2222C12.5817 38.2097 13.2309 36.7057 13.5452 34.7119C13.9068 32.5271 13.7493 30.8956 13.0734 29.8193ZM10.0762 33.0368L9.58117 35.8127C9.45461 36.4822 9.23419 36.9693 8.91993 37.2722C8.60566 37.5751 8.15708 37.727 7.57505 37.727H6.46609C5.88405 37.727 5.47852 37.5952 5.25036 37.3315C5.02219 37.0688 4.96279 36.6419 5.07299 36.0519L5.63953 32.7977C5.74974 32.2085 5.9624 31.7816 6.27667 31.518C6.59179 31.2552 7.03951 31.1234 7.62241 31.1234H8.73137C9.3134 31.1234 9.71463 31.2753 9.93504 31.5782C10.1546 31.8811 10.202 32.3673 10.0762 33.0368Z" fill="#bbf843"/>
<path d="M27.1025 31.6498C26.9527 30.852 26.6582 30.1947 26.2183 29.6762C25.7774 29.1576 25.1954 28.771 24.4713 28.5152C23.7472 28.2603 22.906 28.1329 21.9469 28.1329C20.8766 28.1329 19.9485 28.2647 19.1615 28.5274C18.3746 28.7902 17.7065 29.1856 17.1554 29.7119C16.6052 30.2383 16.1567 30.8956 15.8105 31.6856C15.4644 32.4747 15.1975 33.4043 15.0081 34.4728C14.8195 35.5578 14.804 36.4988 14.9616 37.2957C15.1183 38.0936 15.4214 38.7517 15.8699 39.2694C16.3177 39.7879 16.9083 40.1755 17.6393 40.4303C18.3711 40.6852 19.2166 40.8127 20.1767 40.8127C21.246 40.8127 22.1707 40.6817 22.9491 40.4181C23.7283 40.1554 24.3886 39.76 24.9319 39.2336C25.4744 38.7072 25.9143 38.0499 26.2536 37.26C26.5919 36.4708 26.8545 35.5412 27.044 34.4728C27.2325 33.3886 27.2523 32.4476 27.1025 31.6498ZM23.575 32.7505L22.9611 36.195C22.8664 36.786 22.6623 37.2119 22.3472 37.4756C22.033 37.7383 21.5766 37.8701 20.9791 37.8701H19.8934C19.295 37.8701 18.886 37.7383 18.6665 37.4756C18.446 37.2119 18.3832 36.786 18.477 36.195L19.0909 32.7505C19.1856 32.1604 19.3897 31.7336 19.7048 31.47C20.0191 31.2072 20.4754 31.0754 21.0729 31.0754H22.1587C22.7562 31.0754 23.1652 31.2072 23.3856 31.47C23.606 31.7336 23.6689 32.1604 23.575 32.7505Z" fill="#bbf843"/>
<path d="M43.1619 28.4916L41.4623 33.4681C41.2419 34.1376 41.0301 34.7879 40.8252 35.4181C40.6211 36.0484 40.4326 36.6742 40.2595 37.2957H40.0227C40.0701 36.6419 40.102 36.0082 40.1174 35.3937C40.1329 34.78 40.1407 34.1376 40.1407 33.4681L40.1174 28.4916H36.0346L34.0767 33.4681C33.8081 34.1376 33.5765 34.78 33.3801 35.3937C33.183 36.0082 32.9746 36.6419 32.7551 37.2957H32.5192C32.5811 36.6419 32.6285 36.0082 32.6604 35.3937C32.6913 34.78 32.7232 34.1376 32.7551 33.4681L32.9436 28.4916H29.144L29.8991 40.4539H34.2411L36.0114 35.8607C36.2628 35.2226 36.4952 34.5845 36.7079 33.9464C36.9197 33.3083 37.1203 32.6781 37.3089 32.0566H37.5457C37.4983 32.6781 37.4544 33.3083 37.4156 33.9464C37.376 34.5845 37.364 35.2226 37.3803 35.8607L37.4742 40.4539H41.7929L46.9142 28.4916H43.1619Z" fill="#bbf843"/>
<path d="M57.474 29.2807C56.6793 28.5152 55.4567 28.1329 53.8044 28.1329C51.8061 28.1329 50.2528 28.6549 49.1439 29.6997C48.034 30.7446 47.2987 32.3359 46.9371 34.4728C46.5746 36.6105 46.7951 38.2009 47.5984 39.2458C48.4 40.2907 49.7767 40.8127 51.7277 40.8127C53.4738 40.8127 54.8462 40.4461 55.8459 39.7128C56.8446 38.9787 57.5325 37.9583 57.9105 36.6498H54.371C54.1661 37.6388 53.5444 38.1337 52.5061 38.1337H51.7277C51.1138 38.1337 50.6971 38.0054 50.4767 37.7505C50.2563 37.4956 50.2012 37.0653 50.3114 36.4586L50.4767 35.5255H58.0991C58.2411 35.1746 58.3712 34.7285 58.4883 34.1856C58.6071 33.6435 58.6656 33.1014 58.6656 32.5585C58.6656 31.1391 58.2678 30.0463 57.474 29.2807ZM55.1734 32.4869L55.0555 33.1564H50.902L51.02 32.4869C51.1293 31.8811 51.3342 31.4508 51.633 31.195C51.9318 30.9401 52.389 30.8118 53.002 30.8118H53.7571C54.4183 30.8118 54.8428 30.9558 55.0314 31.243C55.2208 31.5302 55.2673 31.9448 55.1734 32.4869Z" fill="#bbf843"/>
<path d="M69.4032 28.3476C68.3959 28.3476 67.5624 28.5117 66.9012 28.8382C66.2408 29.1655 65.682 29.6325 65.2257 30.2383H64.9898V28.4916H61.7567L59.6567 40.4539H63.1963L64.2588 34.4492C64.4155 33.5562 64.7185 32.9173 65.1671 32.5349C65.6157 32.1517 66.2959 31.9606 67.2085 31.9606H69.0493L69.6856 28.3476H69.4032Z" fill="#bbf843"/>
</g>
<defs>
<clipPath id="clip0_62_449">
<rect width="72" height="45" fill="white"/>
</clipPath>
</defs>
</svg>
